<?xml version="1.0" encoding="UTF-8"?>
<svg width="33px" height="33px" viewBox="0 0 33 33" version="1.1" xmlns="http://www.w3.org/2000/svg" xmlns:xlink="http://www.w3.org/1999/xlink">
    <!-- Generator: Sketch 45.1 (43504) - http://www.bohemiancoding.com/sketch -->
    <title>Artboard 2</title>
    <desc>Created with Sketch.</desc>
    <defs></defs>
    <g id="Page-1" stroke="none" stroke-width="1" fill="none" fill-rule="evenodd">
        <g id="Artboard-2" transform="translate(-469.000000, -712.000000)" fill="#424242">
            <g id="Group" transform="translate(383.000000, 716.000000)">
                <g id="Behance-logo" transform="translate(89.250000, 4.000000)">
                    <path d="M8.39168997,14.1838162 L3.7959031,14.1838162 L3.7959031,9.57379345 L8.61355555,9.57379345 C8.61355555,9.57379345 10.3584532,9.55032614 10.3584532,11.9431226 C10.3584532,13.937844 9.08230913,14.1638255 8.39168997,14.1838162 L8.39168997,14.1838162 Z M3.7959031,3.06639522 L7.99383329,3.06639522 L8.61355555,3.06639522 C8.61355555,3.06639522 9.78460541,3.06639522 9.78460541,4.86034072 C9.78460541,6.65515538 9.09565442,6.91503411 8.31495451,6.91503411 L3.7959031,6.91503411 L3.7959031,3.06639522 Z M10.7721574,7.87545551 C10.7721574,7.87545551 13.297755,7.67989459 13.297755,4.59350871 C13.297755,1.50625366 11.2317361,3.55271368e-15 8.61355555,3.55271368e-15 L3.7959031,3.55271368e-15 L3.65410931,3.55271368e-15 L0,3.55271368e-15 L0,17.2493423 L3.65410931,17.2493423 L3.7959031,17.2493423 L8.61355555,17.2493423 C8.61355555,17.2493423 13.8716028,17.422305 13.8716028,12.1586742 C13.8716028,12.1586742 14.1018092,7.87545551 10.7721574,7.87545551 L10.7721574,7.87545551 Z" id="Fill-17"></path>
                    <path d="M24.3884103,9.55969811 L18.7065509,9.55969811 C18.7065509,9.55969811 19.0787175,7.01666819 21.750124,7.01666819 C24.422402,7.01666819 24.3884103,9.55969811 24.3884103,9.55969811 M21.683012,4.6 C15.0310791,4.6 15.0371802,10.9388699 15.0371802,10.9388699 C15.0371802,10.9388699 14.5804699,17.2453181 21.683012,17.2453181 C21.683012,17.2453181 27.6019423,17.5678731 27.6019423,12.8584045 L24.5574976,12.8584045 C24.5574976,12.8584045 24.659473,14.6324567 21.7841158,14.6324567 C21.7841158,14.6324567 18.7405427,14.8269873 18.7405427,11.7618839 L27.7030461,11.7618839 C27.7030461,11.7618839 28.6835786,4.6 21.683012,4.6" id="Fill-19"></path>
                    <polygon id="Fill-21" points="25.4375 1.15 18.5 1.15 18.5 3.45 25.4375 3.45"></polygon>
                </g>
            </g>
        </g>
    </g>
</svg>