<?xml version="1.0" encoding="UTF-8"?>
<svg width="33px" height="33px" viewBox="0 0 33 33" version="1.1" xmlns="http://www.w3.org/2000/svg" xmlns:xlink="http://www.w3.org/1999/xlink">
    <!-- Generator: Sketch 45.1 (43504) - http://www.bohemiancoding.com/sketch -->
    <title>Artboard 2</title>
    <desc>Created with Sketch.</desc>
    <defs></defs>
    <g id="Page-1" stroke="none" stroke-width="1" fill="none" fill-rule="evenodd">
        <g id="Artboard-2" transform="translate(-421.000000, -712.000000)" fill="#424242">
            <g id="Group" transform="translate(383.000000, 716.000000)">
                <path d="M54.74925,0 C48.123,0 42.75,5.50830235 42.75,12.3046693 C42.75,17.7399172 46.188,22.3515728 50.95725,23.9787636 C51.55725,24.0918057 51.77625,23.7119228 51.77625,23.3858694 C51.77625,23.0936518 51.76575,22.3200441 51.75975,21.2934374 C48.4215,22.0370544 47.71725,19.6439458 47.71725,19.6439458 C47.172,18.2228453 46.38525,17.8445004 46.38525,17.8445004 C45.2955,17.0808895 46.46775,17.0962694 46.46775,17.0962694 C47.6715,17.1831657 48.30525,18.3643401 48.30525,18.3643401 C49.37625,20.2445299 51.114,19.7016203 51.798,19.3863329 C51.90675,18.5911933 52.21725,18.0490527 52.56,17.7414552 C49.89525,17.4307817 47.094,16.3757223 47.094,11.6610215 C47.094,10.3175894 47.56125,9.21946627 48.32925,8.35896224 C48.2055,8.04751977 47.79375,6.7971359 48.44625,5.10304263 C48.44625,5.10304263 49.45425,4.77237532 51.74625,6.36419241 C52.704,6.09119962 53.73,5.95508773 54.75075,5.94970477 C55.77,5.95508773 56.79675,6.09119962 57.75525,6.36419241 C60.04575,4.77237532 61.0515,5.10304263 61.0515,5.10304263 C61.70625,6.7971359 61.2945,8.04751977 61.17075,8.35896224 C61.94025,9.21946627 62.4045,10.3175894 62.4045,11.6610215 C62.4045,16.3872572 59.59875,17.4277057 56.92575,17.7322273 C57.35625,18.1121102 57.74025,18.8626481 57.74025,20.0107558 C57.74025,21.6556335 57.72525,22.9821477 57.72525,23.3858694 C57.72525,23.7149988 57.94125,24.0979577 58.55025,23.9772256 C63.315,22.3469589 66.75,17.7383792 66.75,12.3046693 C66.75,5.50830235 61.377,0 54.74925,0" id="Github-logo"></path>
            </g>
        </g>
    </g>
</svg>