<?xml version="1.0" encoding="UTF-8"?>
<svg width="33px" height="33px" viewBox="0 0 33 33" version="1.1" xmlns="http://www.w3.org/2000/svg" xmlns:xlink="http://www.w3.org/1999/xlink">
    <!-- Generator: Sketch 45.1 (43504) - http://www.bohemiancoding.com/sketch -->
    <title>Artboard 2</title>
    <desc>Created with Sketch.</desc>
    <defs></defs>
    <g id="Page-1" stroke="none" stroke-width="1" fill="none" fill-rule="evenodd">
        <g id="Artboard-2" transform="translate(-376.000000, -712.000000)" fill="#424242">
            <g id="Group" transform="translate(383.000000, 716.000000)">
                <path d="M0.048,6.00000006 L4.5,6.00000006 L4.5,22.5000001 L0.048,22.5000001 L0.048,6.00000006 Z M13.6305,6.00150006 C12,6.00150006 11.187,6.77850006 10.5,7.30500006 L10.5,6.00000006 L6.024,6.00000006 L6.024,22.5000001 L10.5,22.5000001 L10.5,12.1125001 C10.5,12.1125001 10.3365,10.0440001 12.816,10.0440001 C14.31,10.0440001 15,10.8945001 15,12.1125001 L15,22.5000001 L19.716,22.5000001 L19.716,12.2580001 C19.716,6.63300006 15.1875,6.00150006 13.6305,6.00150006 L13.6305,6.00150006 Z M0,2.25000006 C-1.19782629e-08,3.05384764 0.428847563,3.79663345 1.12499999,4.19855724 C1.82115242,4.60048104 2.67884758,4.60048104 3.37500001,4.19855724 C4.07115244,3.79663345 4.50000001,3.05384764 4.5,2.25000006 C4.50000002,1.44615247 4.07115245,0.703366653 3.37500002,0.301442851 C2.67884759,-0.10048095 1.82115241,-0.10048095 1.12499998,0.301442851 C0.428847552,0.703366653 -2.07469588e-08,1.44615247 0,2.25000006 L0,2.25000006 Z" id="Shape"></path>
            </g>
        </g>
    </g>
</svg>