<?xml version="1.0" encoding="UTF-8"?>
<svg width="455px" height="493px" viewBox="0 0 455 493" version="1.1" xmlns="http://www.w3.org/2000/svg" xmlns:xlink="http://www.w3.org/1999/xlink">
    <!-- Generator: Sketch 45.1 (43504) - http://www.bohemiancoding.com/sketch -->
    <title>Rectangle 5</title>
    <desc>Created with Sketch.</desc>
    <defs></defs>
    <g id="Page-1" stroke="none" stroke-width="1" fill="none" fill-rule="evenodd">
        <g id="Artboard" transform="translate(-1255.000000, -4389.000000)" fill="#000000">
            <path d="M1304.38357,4756.20157 C1311.65628,4755.55168 1366.68473,4756.01912 1366.68473,4756.01912 C1366.68473,4756.01912 1364.79689,4785.87838 1392.87253,4812.77485 C1412.08389,4831.17934 1434.85513,4841.55658 1461.92845,4839.54138 C1467.84628,4839.10089 1502.57765,4835.72772 1526.76028,4804.80136 C1533.49969,4796.18255 1558.2754,4764.08796 1542.75842,4721.57404 C1540.37516,4715.04429 1537.37184,4703.4605 1524.72032,4689.84075 C1518.41911,4683.05732 1502.44116,4667.61778 1478.7469,4660.10647 C1464.98792,4655.74474 1467.59657,4657.42754 1459.21248,4654.63555 C1453.36386,4652.6879 1428.09425,4643.85607 1413.62628,4629.99606 C1410.81405,4627.302 1404.31109,4623.8224 1391.2592,4606.29961 C1378.2073,4588.77682 1373.9035,4578.67896 1372.1158,4572.62071 C1371.62425,4570.95492 1367.43987,4560.75777 1365.25907,4553.13268 C1363.71287,4547.72641 1354.75522,4508.28951 1364.92363,4478.18979 C1369.80257,4463.74754 1371.13542,4458.83524 1372.3174,4457.33637 C1373.56853,4455.74979 1381.2191,4434.15041 1395.03248,4420.47131 C1395.36697,4420.14008 1416.09828,4390.25195 1452.47065,4377.44197 C1456.88676,4375.88666 1468.30839,4370.86276 1480.5796,4367.80343 C1489.26424,4365.63827 1509.83191,4362.79311 1525.95986,4365.41806 C1531.71666,4366.35503 1544.99792,4367.6509 1551.07644,4370.16973 C1552.03066,4370.56514 1565.52327,4374.40243 1574.1711,4378.14897 C1584.92539,4382.8081 1610.41246,4391.87608 1639.69474,4435.21137 C1668.97703,4478.54666 1662.82317,4516.21095 1662.82317,4516.21095 L1604.6096,4509.25437 C1604.6096,4509.25437 1603.4222,4498.07588 1597.34794,4481.68754 C1591.27368,4465.29921 1586.50703,4461.01262 1577.87335,4452.14738 C1568.79023,4442.82064 1558.51848,4435.67039 1548.4141,4431.55692 C1538.30972,4427.44346 1520.23213,4425.00503 1515.27099,4424.73165 C1496.78699,4423.71313 1475.97961,4430.68559 1470.67083,4433.49665 C1459.79448,4439.2558 1457.15003,4442.47422 1456.1982,4443.28938 C1440.47265,4456.75692 1440.25071,4458.30131 1435.16022,4465.45282 C1429.76161,4473.03719 1426.41038,4481.36196 1426.30186,4481.56169 C1422.02662,4489.43068 1419.98571,4506.2663 1419.92835,4506.63744 C1418.63325,4515.01732 1419.54519,4521.37961 1419.57764,4521.78127 C1420.26878,4530.33693 1421.47503,4534.76144 1421.61235,4535.6934 C1423.15279,4546.14809 1428.91198,4557.73181 1432.61706,4563.77773 C1435.81944,4569.00335 1439.00552,4572.73616 1440.52496,4574.85144 C1443.96678,4579.64292 1455.75736,4590.10044 1459.91374,4592.97956 C1462.28967,4594.62537 1465.94041,4596.84576 1468.86751,4598.28309 C1471.79462,4599.72043 1472.95346,4599.90322 1473.02126,4599.95227 C1474.96768,4601.36022 1479.25261,4602.80698 1481.76451,4603.72009 C1491.83784,4607.38192 1504.86622,4607.56117 1508.08061,4608.23959 C1511.16008,4608.88953 1520.88941,4607.89435 1524.50517,4607.54862 C1535.46038,4606.5011 1547.14106,4601.95476 1549.02678,4600.40134 C1548.72132,4600.02412 1512.37931,4555.14548 1506.69306,4548.12355 C1506.90316,4548.58679 1536.74058,4524.21794 1553.27232,4510.8308 C1566.04694,4527.70388 1618.41987,4591.40672 1622.52777,4596.78882 C1627.24958,4602.97524 1632.01237,4608.345 1632.90834,4609.46984 C1633.86265,4610.49895 1576.52839,4656.34562 1576.57965,4656.55637 C1576.75342,4657.27075 1577.692,4658.0621 1578.28082,4658.89129 C1578.85472,4659.69947 1579.5872,4660.58512 1580.40309,4661.59297 C1582.05608,4663.63487 1583.049,4665.03932 1584.54008,4666.85002 C1585.73642,4668.30281 1586.94603,4669.83436 1588.06089,4671.42748 C1592.69302,4678.04673 1597.43659,4689.71929 1598.19178,4691.02107 C1602.07726,4697.71868 1610.214,4723.3922 1611.14516,4742.29968 C1611.73324,4754.24105 1611.89732,4764.09847 1611.31475,4766.61953 C1608.37024,4779.362 1606.53964,4796.22464 1601.34365,4807.90198 C1594.1624,4824.04092 1585.7586,4838.742 1576.49738,4849.47855 C1559.31951,4869.39289 1540.14265,4883.12219 1523.34333,4890.5873 C1500.85872,4900.57877 1483.64038,4903.08135 1483.57909,4903.0844 C1470.693,4903.72631 1452.15782,4905.46243 1441.60405,4904.04855 C1378.15192,4895.54793 1342.22964,4857.18165 1325.07893,4822.83118 C1304.91518,4782.446 1304.38357,4756.20157 1304.38357,4756.20157 Z" id="Rectangle-5" transform="translate(1483.872829, 4634.476446) rotate(129.000000) translate(-1483.872829, -4634.476446) "></path>
        </g>
    </g>
</svg>