<?xml version="1.0" encoding="UTF-8"?>
<svg width="340px" height="88px" viewBox="0 0 340 88" version="1.1" xmlns="http://www.w3.org/2000/svg" xmlns:xlink="http://www.w3.org/1999/xlink">
    <!-- Generator: Sketch 45.1 (43504) - http://www.bohemiancoding.com/sketch -->
    <title>Group 4</title>
    <desc>Created with Sketch.</desc>
    <defs>
        <path d="M39.7379168,5.44615385 L50.6176956,5.44615385 L50.6176956,10.5634615 L50.6176956,10.5634615 C50.6176956,11.309046 50.01328,11.9134615 49.2676956,11.9134615 L39.7379168,11.9134615 L39.7379168,11.9134615 C38.9923324,11.9134615 38.3879168,11.309046 38.3879168,10.5634615 L38.3879168,6.79615385 L38.3879168,6.79615385 C38.3879168,6.05056943 38.9923324,5.44615385 39.7379168,5.44615385 Z" id="path-1"></path>
        <rect id="path-2" x="17.1556619" y="2.55288462" width="24.2896996" height="12.0836538" rx="1.35"></rect>
        <rect id="path-3" x="0.0166268883" y="0.125929797" width="19.2863871" height="16.6788462" rx="1.35"></rect>
        <rect id="path-4" x="54.1324363" y="18.5236553" width="2.816263" height="3.91442308" rx="0.675"></rect>
    </defs>
    <g id="Page-1" stroke="none" stroke-width="1" fill="none" fill-rule="evenodd">
        <g id="Artboard-2" transform="translate(-521.000000, -527.000000)">
            <g id="Group-4" transform="translate(520.000000, 526.000000)">
                <g id="Group-3">
                    <ellipse id="Oval-2" fill="#FFFFFF" cx="44.9858039" cy="80.1605769" rx="39.407065" ry="8.33942308"></ellipse>
                    <g id="Group-2" transform="translate(15.626940, 22.975962)">
                        <path d="M6.85267415,56.3336538 L14.4962859,56.3336538" id="Line" stroke="#5A6E81" stroke-width="1.6875" stroke-linecap="round"></path>
                        <path d="M43.5420106,56.3336538 L51.1856223,56.3336538" id="Line" stroke="#5A6E81" stroke-width="1.6875" stroke-linecap="round"></path>
                        <path d="M10.589551,55.5777085 L28.9342192,26.7817222" id="Line" stroke="#5A6E81" stroke-width="1.6875" stroke-linecap="round"></path>
                        <path d="M47.6752236,55.4109749 L29.0191482,26.7201923" id="Line" stroke="#5A6E81" stroke-width="1.6875" stroke-linecap="round"></path>
                        <ellipse id="Oval" stroke="#5A6E81" stroke-width="1.6875" fill="#FFFFFF" cx="29.0191482" cy="26.2096154" rx="3.39716078" ry="3.40384615"></ellipse>
                        <g id="Group" transform="translate(28.290883, 16.476631) rotate(18.000000) translate(-28.290883, -16.476631) translate(2.754402, 7.476631)">
                            <g id="Rectangle-2">
                                <use fill="#FFFFFF" fill-rule="evenodd" xlink:href="#path-1"></use>
                                <path stroke="#5A6E81" stroke-width="1.6875" d="M49.7739456,6.28990385 L39.7379168,6.28990385 C39.4583226,6.28990385 39.2316668,6.51655969 39.2316668,6.79615385 L39.2316668,10.5634615 C39.2316668,10.8430557 39.4583226,11.0697115 39.7379168,11.0697115 L49.2676956,11.0697115 C49.5472898,11.0697115 49.7739456,10.8430557 49.7739456,10.5634615 L49.7739456,6.28990385 Z"></path>
                            </g>
                            <g id="Rectangle">
                                <use fill="#FFFFFF" fill-rule="evenodd" xlink:href="#path-2"></use>
                                <rect stroke="#5A6E81" stroke-width="1.6875" x="17.9994119" y="3.39663462" width="22.6021996" height="10.3961538" rx="1.35"></rect>
                            </g>
                            <g id="Rectangle-3">
                                <use fill="#FFFFFF" fill-rule="evenodd" xlink:href="#path-3"></use>
                                <rect stroke="#5A6E81" stroke-width="1.6875" x="0.860376888" y="0.969679797" width="17.5988871" height="14.9913462" rx="1.35"></rect>
                            </g>
                            <rect id="Rectangle-5" fill="#5A6E81" x="4.58616705" y="1.19134615" width="1.69858039" height="14.4663462" rx="0.675"></rect>
                            <rect id="Rectangle-5" fill="#5A6E81" x="28.1964345" y="3.74423077" width="2.20815451" height="9.70096154" rx="0.675"></rect>
                            <path d="M34.6510399,3.14855769 L34.6510399,0.255288462" id="Line" stroke="#5A6E81" stroke-width="1.6875" stroke-linecap="round"></path>
                        </g>
                        <path d="M53.4658258,22.270796 L56.2156057,25.2970533 L56.2156057,25.2970533 C56.5916544,25.7109119 56.5610034,26.3512582 56.1471448,26.7273069 C55.9567571,26.9003009 55.7076601,26.9943408 55.4504476,26.9903263 L51.7027452,26.9318333 L51.7027452,22.9699795 L51.704564,22.9169717 L51.704564,22.9169717 C51.7237397,22.3581122 52.1923298,21.9206122 52.7511892,21.9397879 C53.0243107,21.9491593 53.2820461,22.0685381 53.4658258,22.270796 Z" id="Triangle" stroke="#5A6E81" stroke-width="1.6875" fill="#FFFFFF" transform="translate(54.084908, 24.469287) rotate(106.000000) translate(-54.084908, -24.469287) "></path>
                        <g id="Rectangle-4" transform="translate(55.540568, 20.480867) rotate(16.000000) translate(-55.540568, -20.480867) ">
                            <use fill="#E8E8E8" fill-rule="evenodd" xlink:href="#path-4"></use>
                            <rect stroke="#5A6E81" stroke-width="1.6875" x="54.9761863" y="19.3674053" width="1.128763" height="2.22692308" rx="0.564381498"></rect>
                        </g>
                    </g>
                    <ellipse id="Oval-3" fill="#FFFFFF" cx="22.6494718" cy="10.6370192" rx="4.33137999" ry="4.33990385"></ellipse>
                    <ellipse id="Oval-3" fill="#FFFFFF" cx="68.8508584" cy="22.0399038" rx="4.33137999" ry="4.33990385"></ellipse>
                    <ellipse id="Oval-3" fill="#FFFFFF" cx="5.83352592" cy="39.2293269" rx="4.33137999" ry="4.33990385"></ellipse>
                    <path d="M48.765477,3.26553208 C50.4295426,4.32096704 51.6547869,4.84766372 52.4412098,4.84562213 C53.2140158,4.84361588 54.4072393,4.3340633 56.0208805,3.31696439 L56.0208805,3.3169644 C56.1982771,3.205149 56.4327298,3.2583131 56.5445452,3.43570974 C56.6237478,3.56136582 56.6224055,3.72166779 56.5411096,3.84597986 C55.4873793,5.45727172 54.9552159,6.63242535 54.9446193,7.37144074 C54.9337839,8.1271139 55.4851259,9.37496699 56.5986454,11.115 L56.5986454,11.115 C56.7116752,11.2916253 56.660121,11.5264372 56.4834957,11.6394671 C56.3587257,11.7193126 56.198912,11.7193054 56.0741493,11.6394485 C54.3112606,10.5110774 53.0674664,9.95739913 52.3427667,9.97841369 C51.6243462,9.99924616 50.4314745,10.5526725 48.7641516,11.6386928 L48.7641516,11.6386928 C48.5884426,11.7531418 48.353223,11.7034808 48.2387739,11.5277718 C48.1584143,11.4043989 48.1566258,11.2456898 48.2341847,11.1205373 C49.2473986,9.48557167 49.7642732,8.27462487 49.7848086,7.48769687 C49.8054924,6.69508235 49.2907198,5.46183686 48.2404909,3.78796039 L48.2404909,3.78796039 C48.129043,3.61033259 48.1826925,3.3759905 48.3603203,3.26454269 C48.4842788,3.18676831 48.6418999,3.18715322 48.765477,3.26553208 Z" id="Rectangle-6" fill="#FFFFFF" transform="translate(52.432486, 7.461336) rotate(45.000000) translate(-52.432486, -7.461336) "></path>
                    <path d="M4.35609847,14.5519762 C5.62331382,15.356843 6.55588921,15.7585003 7.15382462,15.756948 C7.74153312,15.7554223 8.64998503,15.3666813 9.87918034,14.5907249 L9.87918034,14.5907249 C10.0121703,14.5067721 10.1880371,14.5465245 10.2719899,14.6795144 C10.33153,14.7738322 10.330524,14.8942274 10.2694161,14.987537 C9.46557739,16.2149707 9.05962886,17.1096855 9.05157053,17.6716815 C9.04333248,18.2462114 9.46376586,19.1960383 10.3128707,20.5211621 L10.3128707,20.5211621 C10.3977213,20.653581 10.3591595,20.8297127 10.2267406,20.9145633 C10.1330983,20.9745669 10.0130924,20.974563 9.91945395,20.9145534 C8.57691125,20.0541647 7.63015937,19.6319586 7.07919833,19.6479352 C6.532955,19.6637749 5.62488521,20.085782 4.35498894,20.9139563 L4.35498894,20.9139563 C4.22325559,20.9998673 4.04681991,20.9627211 3.96090882,20.8309877 C3.90051932,20.7383884 3.89918068,20.6192052 3.95747511,20.5252728 C4.73027704,19.2800229 5.1244857,18.3582024 5.1401011,17.7598112 C5.15582729,17.1571739 4.76322863,16.2185231 3.96230513,14.9438588 L3.96230513,14.9438588 C3.87863162,14.810693 3.91875307,14.63491 4.05191888,14.5512365 C4.14496219,14.4927736 4.26334064,14.4930615 4.35609847,14.5519762 Z" id="Rectangle-6" fill="#FFFFFF" transform="translate(7.147211, 17.739828) rotate(45.000000) translate(-7.147211, -17.739828) "></path>
                    <path d="M81.3017901,31.7413993 C82.5690055,32.5462661 83.5015809,32.9479234 84.0995163,32.9463711 C84.6872248,32.9448454 85.5956767,32.5561043 86.824872,31.7801479 L86.824872,31.7801479 C86.9578619,31.6961951 87.1337287,31.7359476 87.2176815,31.8689375 C87.2772217,31.9632552 87.2762157,32.0836505 87.2151078,32.1769601 C86.411269,33.4043938 86.0053205,34.2991086 85.9972622,34.8611046 C85.9890241,35.4356345 86.4094575,36.3854614 87.2585623,37.7105852 L87.2585623,37.7105852 C87.3434129,37.8430041 87.3048512,38.0191358 87.1724322,38.1039864 C87.0787899,38.1639899 86.958784,38.1639861 86.8651456,38.1039765 C85.5226029,37.2435878 84.575851,36.8213817 84.02489,36.8373583 C83.4786467,36.853198 82.5705769,37.275205 81.3006806,38.1033793 L81.3006806,38.1033793 C81.1689472,38.1892904 80.9925116,38.1521441 80.9066005,38.0204108 C80.846211,37.9278114 80.8448723,37.8086283 80.9031668,37.7146959 C81.6759687,36.469446 82.0701774,35.5476255 82.0857927,34.9492342 C82.1015189,34.346597 81.7089203,33.4079462 80.9079968,32.1332819 L80.9079968,32.1332819 C80.8243233,32.000116 80.8644447,31.824333 80.9976105,31.7406595 C81.0906538,31.6821966 81.2090323,31.6824845 81.3017901,31.7413993 Z" id="Rectangle-6" fill="#FFFFFF" transform="translate(84.092903, 34.929251) rotate(45.000000) translate(-84.092903, -34.929251) "></path>
                </g>
                <text id="Telescope" font-family="Arvo-Bold, Arvo" font-size="45" font-weight="bold" letter-spacing="0.815999061" fill="#FFFFFF">
                    <tspan x="106.051502" y="59.4210526">Telescope</tspan>
                </text>
            </g>
        </g>
    </g>
</svg>